<?xml version="1.0" encoding="utf-8"?>
<!-- Generator: Adobe Illustrator 16.0.0, SVG Export Plug-In . SVG Version: 6.00 Build 0)  -->
<!DOCTYPE svg PUBLIC "-//W3C//DTD SVG 1.1//EN" "http://www.w3.org/Graphics/SVG/1.1/DTD/svg11.dtd">
<svg version="1.1" id="Mode_Isolation" xmlns="http://www.w3.org/2000/svg" xmlns:xlink="http://www.w3.org/1999/xlink" x="0px"
	 y="0px" width="22px" height="15px" viewBox="0 0 154.575 103.453" enable-background="new 0 0 154.575 103.453"
	 xml:space="preserve">
<g>
	<g>
		<g>
			<g>
				<rect y="0.034" fill="#00237C" width="64.17" height="34.323"/>
				<g>
					<polygon fill="#FFFFFF" points="17.613,0.034 0,0.034 0,10.828 85.928,67.565 106.84,58.951 					"/>
				</g>
				<g>
					<polygon fill="#CF142B" points="0,-0.064 0,7.354 87.067,64.842 90.471,59.676 					"/>
				</g>
			</g>
			<g>
				<rect x="90.405" y="0.034" fill="#00237C" width="64.17" height="34.323"/>
				<g>
					<polygon fill="#FFFFFF" points="136.967,0.034 154.575,0.034 154.575,10.828 68.648,67.565 47.738,58.951 					"/>
				</g>
				<g>
					<polygon fill="#CF142B" points="154.575,0.936 154.575,8.355 67.514,65.843 64.096,60.677 					"/>
				</g>
			</g>
			<g>
				<rect x="90.405" y="69.195" fill="#00237C" width="64.17" height="34.321"/>
				<g>
					<polygon fill="#FFFFFF" points="136.967,103.517 154.575,103.517 154.575,92.725 68.648,35.987 47.738,44.598 					"/>
				</g>
				<g>
					<polygon fill="#CF142B" points="154.575,102.615 154.575,95.196 67.514,37.709 64.096,42.876 					"/>
				</g>
			</g>
			<g>
				<rect y="69.195" fill="#00237C" width="64.17" height="34.321"/>
				<g>
					<polygon fill="#FFFFFF" points="17.613,103.517 0,103.517 0,92.725 85.928,35.987 106.84,44.598 					"/>
				</g>
				<g>
					<polygon fill="#CF142B" points="0,102.615 0,95.196 87.067,37.709 90.471,42.876 					"/>
				</g>
			</g>
			<polygon fill="#FFFFFF" points="154.575,34.357 90.538,34.357 90.538,0.034 63.781,0.034 63.781,34.357 0,34.357 0,68.421 
				63.781,68.421 63.781,103.517 90.538,103.517 90.538,68.421 154.575,68.421 			"/>
			<polygon fill="#CF142B" points="154.575,41.324 84.862,41.324 84.862,0.034 69.46,0.034 69.46,41.324 0,41.324 0,61.451 
				69.46,61.451 69.46,103.517 84.862,103.517 84.862,61.451 154.575,61.451 			"/>
		</g>
	</g>
</g>
<circle fill="none" cx="77.288" cy="51.727" r="42.7"/>
</svg>
